<svg width="36" height="45" viewBox="0 0 36 45" fill="none" xmlns="http://www.w3.org/2000/svg">
<path d="M35.207 0.285156L35.0859 6.06738L20.9482 6.6123L21.3721 44.8174L14.6816 44.9385V6.85449L0.362305 7.42969L0.241211 1.04199L35.207 0.285156Z" fill="white"/>
<path d="M35.207 0.285156L37.2066 0.327032L37.2503 -1.75954L35.1638 -1.71438L35.207 0.285156ZM35.0859 6.06738L35.163 8.0659L37.046 7.99332L37.0855 6.10926L35.0859 6.06738ZM20.9482 6.6123L20.8712 4.61379L18.9268 4.68873L18.9484 6.63449L20.9482 6.6123ZM21.3721 44.8174L21.4083 46.8171L23.394 46.7811L23.3719 44.7952L21.3721 44.8174ZM14.6816 44.9385H12.6816V46.975L14.7178 46.9381L14.6816 44.9385ZM14.6816 6.85449H16.6816V4.77254L14.6014 4.8561L14.6816 6.85449ZM0.362305 7.42969L-1.63734 7.4676L-1.59862 9.51007L0.442578 9.42808L0.362305 7.42969ZM0.241211 1.04199L0.197931 -0.957539L-1.79624 -0.914376L-1.75843 1.0799L0.241211 1.04199ZM33.2075 0.243281L33.0864 6.02551L37.0855 6.10926L37.2066 0.327032L33.2075 0.243281ZM35.0089 4.06887L20.8712 4.61379L21.0253 8.61082L35.163 8.0659L35.0089 4.06887ZM18.9484 6.63449L19.3722 44.8396L23.3719 44.7952L22.9481 6.59012L18.9484 6.63449ZM21.3359 42.8177L14.6454 42.9388L14.7178 46.9381L21.4083 46.8171L21.3359 42.8177ZM16.6816 44.9385V6.85449H12.6816V44.9385H16.6816ZM14.6014 4.8561L0.282031 5.4313L0.442578 9.42808L14.7619 8.85288L14.6014 4.8561ZM2.36195 7.39178L2.24085 1.00408L-1.75843 1.0799L-1.63734 7.4676L2.36195 7.39178ZM0.284491 3.04152L35.2503 2.28469L35.1638 -1.71438L0.197931 -0.957539L0.284491 3.04152Z" fill="white"/>
</svg>
