<svg width="179" height="49" viewBox="0 0 179 49" fill="none" xmlns="http://www.w3.org/2000/svg">
<path d="M21.0234 15.4297L20.9531 18.7871L12.7441 19.1035L12.9902 41.2871L9.10547 41.3574V19.2441L0.791016 19.5781L0.720703 15.8691L21.0234 15.4297Z" fill="white"/>
<path d="M34.8965 39.1787C34.6133 38.1826 34.3203 37.1963 34.0176 36.2197C33.7148 35.2334 33.3975 34.2422 33.0654 33.2461L21.2734 33.7588C20.9121 34.6963 20.5654 35.6289 20.2334 36.5566C19.9014 37.4844 19.5791 38.4219 19.2666 39.3691L15.9414 38.915C17.3184 35.2236 18.8418 31.5908 20.5117 28.0166C22.1914 24.4424 23.9785 20.9023 25.873 17.3965L29.9746 17.4697C31.6543 20.8584 33.1875 24.3154 34.5742 27.8408C35.9609 31.3564 37.2207 34.9697 38.3535 38.6807L34.8965 39.1787ZM27.6162 19.8281C26.6299 21.7031 25.6973 23.5879 24.8184 25.4824C23.9395 27.3672 23.0996 29.2764 22.2988 31.21L32.2012 30.7852C31.5371 28.9102 30.8242 27.0693 30.0625 25.2627C29.3008 23.4561 28.4854 21.6445 27.6162 19.8281Z" fill="white"/>
<path d="M64.5869 38.9736L61.5547 39.5742L58.6104 21.1904L53.7764 37.1133L50.1436 37.5381L44.665 22.084L42.0137 38.8857L38.9229 38.4609L42.9805 17.1035H46.0127L51.916 33.9932L57.1748 17.2793L60.6172 17.1914L64.5869 38.9736Z" fill="white"/>
<path d="M84.8965 39.1787C84.6133 38.1826 84.3203 37.1963 84.0176 36.2197C83.7148 35.2334 83.3975 34.2422 83.0654 33.2461L71.2734 33.7588C70.9121 34.6963 70.5654 35.6289 70.2334 36.5566C69.9014 37.4844 69.5791 38.4219 69.2666 39.3691L65.9414 38.915C67.3184 35.2236 68.8418 31.5908 70.5117 28.0166C72.1914 24.4424 73.9785 20.9023 75.873 17.3965L79.9746 17.4697C81.6543 20.8584 83.1875 24.3154 84.5742 27.8408C85.9609 31.3564 87.2207 34.9697 88.3535 38.6807L84.8965 39.1787ZM77.6162 19.8281C76.6299 21.7031 75.6973 23.5879 74.8184 25.4824C73.9395 27.3672 73.0996 29.2764 72.2988 31.21L82.2012 30.7852C81.5371 28.9102 80.8242 27.0693 80.0625 25.2627C79.3008 23.4561 78.4854 21.6445 77.6162 19.8281Z" fill="white"/>
<path d="M123.52 18.0977L123.461 20.8955L116.62 21.1592L116.825 39.6455L113.588 39.7041V21.2764L106.659 21.5547L106.601 18.4639L123.52 18.0977Z" fill="white"/>
<path d="M140.896 29.2012C140.906 30.1094 140.838 31.0078 140.691 31.8965C140.555 32.7754 140.33 33.6152 140.018 34.416C139.705 35.207 139.305 35.9395 138.816 36.6133C138.338 37.2773 137.767 37.8584 137.103 38.3564C136.448 38.8447 135.696 39.2256 134.847 39.499C134.007 39.7725 133.074 39.9092 132.049 39.9092C131.014 39.9092 130.105 39.7432 129.324 39.4111C128.543 39.0889 127.859 38.6494 127.273 38.0928C126.697 37.5264 126.209 36.877 125.809 36.1445C125.418 35.4121 125.101 34.6406 124.856 33.8301C124.622 33.0195 124.446 32.1992 124.329 31.3691C124.212 30.5293 124.144 29.7285 124.124 28.9668C124.104 28 124.124 26.9404 124.183 25.7881C124.231 24.8018 124.319 23.6543 124.446 22.3457C124.583 21.0371 124.788 19.6406 125.062 18.1562L128.24 18.6104C128.016 19.5771 127.835 20.5098 127.698 21.4082C127.562 22.3066 127.454 23.1514 127.376 23.9424C127.298 24.7334 127.244 25.4561 127.215 26.1104C127.195 26.7646 127.186 27.3262 127.186 27.7949C127.186 28.3418 127.205 28.9521 127.244 29.626C127.293 30.2998 127.381 30.9883 127.508 31.6914C127.645 32.3848 127.83 33.0635 128.064 33.7275C128.309 34.3818 128.626 34.9678 129.017 35.4854C129.407 35.9932 129.886 36.4033 130.452 36.7158C131.019 37.0283 131.692 37.1846 132.474 37.1846C133.284 37.1846 134.017 36.999 134.671 36.6279C135.325 36.2568 135.882 35.7246 136.341 35.0312C136.8 34.3379 137.146 33.498 137.381 32.5117C137.625 31.5254 137.737 30.4219 137.718 29.2012C137.698 28.2246 137.64 27.1699 137.542 26.0371C137.464 25.0605 137.342 23.9424 137.176 22.6826C137.01 21.4229 136.78 20.085 136.487 18.6689L139.607 18.2441C139.92 19.8555 140.159 21.3301 140.325 22.668C140.491 23.9961 140.618 25.1484 140.706 26.125C140.804 27.2578 140.867 28.2832 140.896 29.2012Z" fill="white"/>
<path d="M161.387 28.4834C161.387 29.8506 161.147 31.0859 160.669 32.1895C160.2 33.2832 159.561 34.2549 158.75 35.1045C157.949 35.9541 157.012 36.6865 155.938 37.3018C154.863 37.9072 153.73 38.4053 152.539 38.7959C151.348 39.1865 150.132 39.4746 148.892 39.6602C147.651 39.8457 146.455 39.9385 145.303 39.9385C144.912 39.9385 144.526 39.9287 144.146 39.9092C143.765 39.8896 143.403 39.8506 143.062 39.792L142.49 18.0391C143.252 17.9805 143.984 17.9365 144.688 17.9072C145.391 17.8779 146.05 17.8633 146.665 17.8633C147.749 17.8633 148.867 17.9072 150.02 17.9951C151.172 18.0732 152.29 18.2441 153.374 18.5078C154.468 18.7617 155.498 19.1279 156.465 19.6064C157.441 20.085 158.291 20.7197 159.014 21.5107C159.746 22.292 160.322 23.2539 160.742 24.3965C161.172 25.5391 161.387 26.9014 161.387 28.4834ZM158.633 28.3369C158.604 27.3896 158.442 26.5352 158.149 25.7734C157.856 25.002 157.456 24.3232 156.948 23.7373C156.45 23.1514 155.864 22.6484 155.19 22.2285C154.517 21.7988 153.789 21.4473 153.008 21.1738C152.227 20.9004 151.406 20.7002 150.547 20.5732C149.688 20.4463 148.823 20.3828 147.954 20.3828C147.583 20.3828 147.188 20.3975 146.768 20.4268C146.357 20.4463 145.933 20.4805 145.493 20.5293L145.947 37.0967C146.113 37.1162 146.279 37.126 146.445 37.126C146.621 37.126 146.792 37.126 146.958 37.126C147.935 37.126 148.906 37.0381 149.873 36.8623C150.84 36.6865 151.758 36.4277 152.627 36.0859C153.506 35.7441 154.316 35.3242 155.059 34.8262C155.801 34.3184 156.44 33.7422 156.978 33.0977C157.515 32.4434 157.93 31.7207 158.223 30.9297C158.525 30.1289 158.662 29.2646 158.633 28.3369Z" fill="white"/>
<path d="M177.384 18.4053L170.074 32.7168V39.7334L167.042 39.9092L167.276 32.6436L159.088 18.6982L162.545 18.3027L168.756 29.5527L174.059 18.3027L177.384 18.4053Z" fill="white"/>
<path d="M108.92 34.8516C108.803 35.6719 108.568 36.4043 108.217 37.0488C107.877 37.6816 107.449 38.2324 106.934 38.7012C106.418 39.1699 105.838 39.5625 105.193 39.8789C104.561 40.207 103.893 40.4707 103.189 40.6699C102.498 40.8691 101.795 41.0098 101.08 41.0918C100.365 41.1855 99.6797 41.2324 99.0234 41.2324C98.1211 41.2324 97.2305 41.1328 96.3516 40.9336C95.4727 40.7461 94.6055 40.4766 93.75 40.125C92.9062 39.7852 92.0684 39.375 91.2363 38.8945C90.416 38.4141 89.6016 37.8867 88.793 37.3125L91.3594 34.2891C92.2734 35.0977 93.1758 35.7363 94.0664 36.2051C94.9688 36.6621 95.7773 37.0078 96.4922 37.2422C97.3242 37.5234 98.1211 37.7109 98.8828 37.8047C99.7266 37.8516 100.512 37.7871 101.238 37.6113C101.965 37.4355 102.598 37.1836 103.137 36.8555C103.688 36.5156 104.127 36.1172 104.455 35.6602C104.783 35.1914 104.977 34.6992 105.035 34.1836C105.07 33.75 104.994 33.3574 104.807 33.0059C104.619 32.6426 104.344 32.3145 103.98 32.0215C103.617 31.7168 103.189 31.4531 102.697 31.2305C102.205 30.9961 101.678 30.791 101.115 30.6152C100.564 30.4277 99.9902 30.2695 99.3926 30.1406C98.8066 30 98.2383 29.8828 97.6875 29.7891C97.0195 29.6719 96.3164 29.5195 95.5781 29.332C94.8398 29.1328 94.1133 28.875 93.3984 28.5586C92.6836 28.2422 92.0098 27.8496 91.377 27.3809C90.7441 26.9121 90.1934 26.3496 89.7246 25.6934C89.2676 25.0254 88.916 24.252 88.6699 23.373C88.4355 22.4941 88.3594 21.4863 88.4414 20.3496C88.5117 19.4121 88.7051 18.5684 89.0215 17.8184C89.3496 17.0566 89.7656 16.377 90.2695 15.7793C90.7852 15.1816 91.3711 14.6719 92.0273 14.25C92.6953 13.8164 93.4043 13.459 94.1543 13.1777C94.9043 12.8965 95.6777 12.6973 96.4746 12.5801C97.2832 12.4512 98.0859 12.3926 98.8828 12.4043C99.9844 12.4629 101.092 12.6328 102.205 12.9141C102.674 13.0313 103.166 13.1836 103.682 13.3711C104.209 13.5469 104.736 13.7637 105.264 14.0215C105.791 14.2676 106.312 14.5664 106.828 14.918C107.344 15.2578 107.836 15.6504 108.305 16.0957L106.336 19.207C105.961 18.7852 105.562 18.416 105.141 18.0996C104.719 17.7832 104.291 17.5078 103.857 17.2734C103.436 17.0391 103.014 16.8398 102.592 16.6758C102.17 16.5117 101.771 16.377 101.396 16.2715C100.494 16.0254 99.6094 15.8848 98.7422 15.8496C97.6758 15.8496 96.7266 16.0137 95.8945 16.3418C95.0625 16.6582 94.3594 17.0742 93.7852 17.5898C93.2227 18.0938 92.7891 18.6621 92.4844 19.2949C92.1914 19.916 92.0449 20.5312 92.0449 21.1406C92.0449 21.7383 92.2207 22.3184 92.5723 22.8809C92.9355 23.4434 93.4336 23.9531 94.0664 24.4102C94.6992 24.8672 95.4434 25.2598 96.2988 25.5879C97.1543 25.9043 98.0742 26.127 99.0586 26.2559C99.9141 26.3496 100.764 26.502 101.607 26.7129C102.463 26.9238 103.277 27.1934 104.051 27.5215C104.824 27.8496 105.533 28.248 106.178 28.7168C106.834 29.1738 107.385 29.707 107.83 30.3164C108.275 30.9141 108.598 31.5938 108.797 32.3555C109.008 33.1055 109.049 33.9375 108.92 34.8516Z" fill="white"/>
</svg>
