<?xml version="1.0" standalone="no"?>
<!DOCTYPE svg PUBLIC "-//W3C//DTD SVG 20010904//EN"
 "http://www.w3.org/TR/2001/REC-SVG-20010904/DTD/svg10.dtd">
<svg version="1.0" xmlns="http://www.w3.org/2000/svg"
 width="179.000000pt" height="179.000000pt" viewBox="0 0 179.000000 179.000000"
 preserveAspectRatio="xMidYMid meet">
<metadata>
Created by potrace 1.14, written by Peter Selinger 2001-2017
</metadata>
<g transform="translate(0.000000,179.000000) scale(0.100000,-0.100000)"
fill="#000000" stroke="none">
<path d="M190 1601 l0 -190 81 4 c45 2 159 7 254 10 l172 6 -1 -716 -1 -715
215 2 215 3 -1 135 c-1 74 -5 399 -8 723 l-7 587 48 1 c79 2 382 14 431 18 9
1 12 40 12 161 l0 160 -705 0 -705 0 0 -189z"/>
</g>
</svg>
