<svg width="179" height="58" viewBox="0 0 179 58" fill="none" xmlns="http://www.w3.org/2000/svg">
<path d="M21.0234 15.4297L20.9531 18.7871L12.7441 19.1035L12.9902 41.2871L9.10547 41.3574V19.2441L0.791016 19.5781L0.720703 15.8691L21.0234 15.4297Z" fill="white"/>
<path d="M34.8965 39.1787C34.6133 38.1826 34.3203 37.1963 34.0176 36.2197C33.7148 35.2334 33.3975 34.2422 33.0654 33.2461L21.2734 33.7588C20.9121 34.6963 20.5654 35.6289 20.2334 36.5566C19.9014 37.4844 19.5791 38.4219 19.2666 39.3691L15.9414 38.915C17.3184 35.2236 18.8418 31.5908 20.5117 28.0166C22.1914 24.4424 23.9785 20.9023 25.873 17.3965L29.9746 17.4697C31.6543 20.8584 33.1875 24.3154 34.5742 27.8408C35.9609 31.3564 37.2207 34.9697 38.3535 38.6807L34.8965 39.1787ZM27.6162 19.8281C26.6299 21.7031 25.6973 23.5879 24.8184 25.4824C23.9395 27.3672 23.0996 29.2764 22.2988 31.21L32.2012 30.7852C31.5371 28.9102 30.8242 27.0693 30.0625 25.2627C29.3008 23.4561 28.4854 21.6445 27.6162 19.8281Z" fill="white"/>
<path d="M64.5869 38.9736L61.5547 39.5742L58.6104 21.1904L53.7764 37.1133L50.1436 37.5381L44.665 22.084L42.0137 38.8857L38.9229 38.4609L42.9805 17.1035H46.0127L51.916 33.9932L57.1748 17.2793L60.6172 17.1914L64.5869 38.9736Z" fill="white"/>
<path d="M84.8965 39.1787C84.6133 38.1826 84.3203 37.1963 84.0176 36.2197C83.7148 35.2334 83.3975 34.2422 83.0654 33.2461L71.2734 33.7588C70.9121 34.6963 70.5654 35.6289 70.2334 36.5566C69.9014 37.4844 69.5791 38.4219 69.2666 39.3691L65.9414 38.915C67.3184 35.2236 68.8418 31.5908 70.5117 28.0166C72.1914 24.4424 73.9785 20.9023 75.873 17.3965L79.9746 17.4697C81.6543 20.8584 83.1875 24.3154 84.5742 27.8408C85.9609 31.3564 87.2207 34.9697 88.3535 38.6807L84.8965 39.1787ZM77.6162 19.8281C76.6299 21.7031 75.6973 23.5879 74.8184 25.4824C73.9395 27.3672 73.0996 29.2764 72.2988 31.21L82.2012 30.7852C81.5371 28.9102 80.8242 27.0693 80.0625 25.2627C79.3008 23.4561 78.4854 21.6445 77.6162 19.8281Z" fill="white"/>
<path d="M123.52 18.0977L123.461 20.8955L116.62 21.1592L116.825 39.6455L113.588 39.7041V21.2764L106.659 21.5547L106.601 18.4639L123.52 18.0977Z" fill="white"/>
<path d="M140.896 29.2012C140.906 30.1094 140.838 31.0078 140.691 31.8965C140.555 32.7754 140.33 33.6152 140.018 34.416C139.705 35.207 139.305 35.9395 138.816 36.6133C138.338 37.2773 137.767 37.8584 137.103 38.3564C136.448 38.8447 135.696 39.2256 134.847 39.499C134.007 39.7725 133.074 39.9092 132.049 39.9092C131.014 39.9092 130.105 39.7432 129.324 39.4111C128.543 39.0889 127.859 38.6494 127.273 38.0928C126.697 37.5264 126.209 36.877 125.809 36.1445C125.418 35.4121 125.101 34.6406 124.856 33.8301C124.622 33.0195 124.446 32.1992 124.329 31.3691C124.212 30.5293 124.144 29.7285 124.124 28.9668C124.104 28 124.124 26.9404 124.183 25.7881C124.231 24.8018 124.319 23.6543 124.446 22.3457C124.583 21.0371 124.788 19.6406 125.062 18.1562L128.24 18.6104C128.016 19.5771 127.835 20.5098 127.698 21.4082C127.562 22.3066 127.454 23.1514 127.376 23.9424C127.298 24.7334 127.244 25.4561 127.215 26.1104C127.195 26.7646 127.186 27.3262 127.186 27.7949C127.186 28.3418 127.205 28.9521 127.244 29.626C127.293 30.2998 127.381 30.9883 127.508 31.6914C127.645 32.3848 127.83 33.0635 128.064 33.7275C128.309 34.3818 128.626 34.9678 129.017 35.4854C129.407 35.9932 129.886 36.4033 130.452 36.7158C131.019 37.0283 131.692 37.1846 132.474 37.1846C133.284 37.1846 134.017 36.999 134.671 36.6279C135.325 36.2568 135.882 35.7246 136.341 35.0312C136.8 34.3379 137.146 33.498 137.381 32.5117C137.625 31.5254 137.737 30.4219 137.718 29.2012C137.698 28.2246 137.64 27.1699 137.542 26.0371C137.464 25.0605 137.342 23.9424 137.176 22.6826C137.01 21.4229 136.78 20.085 136.487 18.6689L139.607 18.2441C139.92 19.8555 140.159 21.3301 140.325 22.668C140.491 23.9961 140.618 25.1484 140.706 26.125C140.804 27.2578 140.867 28.2832 140.896 29.2012Z" fill="white"/>
<path d="M161.387 28.4834C161.387 29.8506 161.147 31.0859 160.669 32.1895C160.2 33.2832 159.561 34.2549 158.75 35.1045C157.949 35.9541 157.012 36.6865 155.938 37.3018C154.863 37.9072 153.73 38.4053 152.539 38.7959C151.348 39.1865 150.132 39.4746 148.892 39.6602C147.651 39.8457 146.455 39.9385 145.303 39.9385C144.912 39.9385 144.526 39.9287 144.146 39.9092C143.765 39.8896 143.403 39.8506 143.062 39.792L142.49 18.0391C143.252 17.9805 143.984 17.9365 144.688 17.9072C145.391 17.8779 146.05 17.8633 146.665 17.8633C147.749 17.8633 148.867 17.9072 150.02 17.9951C151.172 18.0732 152.29 18.2441 153.374 18.5078C154.468 18.7617 155.498 19.1279 156.465 19.6064C157.441 20.085 158.291 20.7197 159.014 21.5107C159.746 22.292 160.322 23.2539 160.742 24.3965C161.172 25.5391 161.387 26.9014 161.387 28.4834ZM158.633 28.3369C158.604 27.3896 158.442 26.5352 158.149 25.7734C157.856 25.002 157.456 24.3232 156.948 23.7373C156.45 23.1514 155.864 22.6484 155.19 22.2285C154.517 21.7988 153.789 21.4473 153.008 21.1738C152.227 20.9004 151.406 20.7002 150.547 20.5732C149.688 20.4463 148.823 20.3828 147.954 20.3828C147.583 20.3828 147.188 20.3975 146.768 20.4268C146.357 20.4463 145.933 20.4805 145.493 20.5293L145.947 37.0967C146.113 37.1162 146.279 37.126 146.445 37.126C146.621 37.126 146.792 37.126 146.958 37.126C147.935 37.126 148.906 37.0381 149.873 36.8623C150.84 36.6865 151.758 36.4277 152.627 36.0859C153.506 35.7441 154.316 35.3242 155.059 34.8262C155.801 34.3184 156.44 33.7422 156.978 33.0977C157.515 32.4434 157.93 31.7207 158.223 30.9297C158.525 30.1289 158.662 29.2646 158.633 28.3369Z" fill="white"/>
<path d="M177.384 18.4053L170.074 32.7168V39.7334L167.042 39.9092L167.276 32.6436L159.088 18.6982L162.545 18.3027L168.756 29.5527L174.059 18.3027L177.384 18.4053Z" fill="white"/>
<path d="M108.92 34.8516C108.803 35.6719 108.568 36.4043 108.217 37.0488C107.877 37.6816 107.449 38.2324 106.934 38.7012C106.418 39.1699 105.838 39.5625 105.193 39.8789C104.561 40.207 103.893 40.4707 103.189 40.6699C102.498 40.8691 101.795 41.0098 101.08 41.0918C100.365 41.1855 99.6797 41.2324 99.0234 41.2324C98.1211 41.2324 97.2305 41.1328 96.3516 40.9336C95.4727 40.7461 94.6055 40.4766 93.75 40.125C92.9062 39.7852 92.0684 39.375 91.2363 38.8945C90.416 38.4141 89.6016 37.8867 88.793 37.3125L91.3594 34.2891C92.2734 35.0977 93.1758 35.7363 94.0664 36.2051C94.9688 36.6621 95.7773 37.0078 96.4922 37.2422C97.3242 37.5234 98.1211 37.7109 98.8828 37.8047C99.7266 37.8516 100.512 37.7871 101.238 37.6113C101.965 37.4355 102.598 37.1836 103.137 36.8555C103.688 36.5156 104.127 36.1172 104.455 35.6602C104.783 35.1914 104.977 34.6992 105.035 34.1836C105.07 33.75 104.994 33.3574 104.807 33.0059C104.619 32.6426 104.344 32.3145 103.98 32.0215C103.617 31.7168 103.189 31.4531 102.697 31.2305C102.205 30.9961 101.678 30.791 101.115 30.6152C100.564 30.4277 99.9902 30.2695 99.3926 30.1406C98.8066 30 98.2383 29.8828 97.6875 29.7891C97.0195 29.6719 96.3164 29.5195 95.5781 29.332C94.8398 29.1328 94.1133 28.875 93.3984 28.5586C92.6836 28.2422 92.0098 27.8496 91.377 27.3809C90.7441 26.9121 90.1934 26.3496 89.7246 25.6934C89.2676 25.0254 88.916 24.252 88.6699 23.373C88.4355 22.4941 88.3594 21.4863 88.4414 20.3496C88.5117 19.4121 88.7051 18.5684 89.0215 17.8184C89.3496 17.0566 89.7656 16.377 90.2695 15.7793C90.7852 15.1816 91.3711 14.6719 92.0273 14.25C92.6953 13.8164 93.4043 13.459 94.1543 13.1777C94.9043 12.8965 95.6777 12.6973 96.4746 12.5801C97.2832 12.4512 98.0859 12.3926 98.8828 12.4043C99.9844 12.4629 101.092 12.6328 102.205 12.9141C102.674 13.0313 103.166 13.1836 103.682 13.3711C104.209 13.5469 104.736 13.7637 105.264 14.0215C105.791 14.2676 106.312 14.5664 106.828 14.918C107.344 15.2578 107.836 15.6504 108.305 16.0957L106.336 19.207C105.961 18.7852 105.562 18.416 105.141 18.0996C104.719 17.7832 104.291 17.5078 103.857 17.2734C103.436 17.0391 103.014 16.8398 102.592 16.6758C102.17 16.5117 101.771 16.377 101.396 16.2715C100.494 16.0254 99.6094 15.8848 98.7422 15.8496C97.6758 15.8496 96.7266 16.0137 95.8945 16.3418C95.0625 16.6582 94.3594 17.0742 93.7852 17.5898C93.2227 18.0938 92.7891 18.6621 92.4844 19.2949C92.1914 19.916 92.0449 20.5312 92.0449 21.1406C92.0449 21.7383 92.2207 22.3184 92.5723 22.8809C92.9355 23.4434 93.4336 23.9531 94.0664 24.4102C94.6992 24.8672 95.4434 25.2598 96.2988 25.5879C97.1543 25.9043 98.0742 26.127 99.0586 26.2559C99.9141 26.3496 100.764 26.502 101.607 26.7129C102.463 26.9238 103.277 27.1934 104.051 27.5215C104.824 27.8496 105.533 28.248 106.178 28.7168C106.834 29.1738 107.385 29.707 107.83 30.3164C108.275 30.9141 108.598 31.5938 108.797 32.3555C109.008 33.1055 109.049 33.9375 108.92 34.8516Z" fill="white"/>
<path d="M57.5664 51.5059C57.5664 52.0306 57.4754 52.5109 57.2935 52.9468C57.1115 53.3784 56.8576 53.7529 56.5317 54.0703C56.2101 54.3835 55.8293 54.6331 55.3892 54.8193C54.9491 55.0055 54.4709 55.1134 53.9546 55.1431C53.3579 55.1812 52.8332 55.1029 52.3804 54.9082C51.9318 54.7135 51.5531 54.4342 51.2441 54.0703C50.9395 53.7064 50.7067 53.2726 50.5459 52.769C50.3851 52.2655 50.2983 51.7196 50.2856 51.1313L51.625 50.9854C51.6123 51.3704 51.6335 51.7069 51.6885 51.9946C51.7477 52.2824 51.8281 52.5299 51.9297 52.7373C52.0355 52.9447 52.1582 53.116 52.2979 53.2515C52.4375 53.3869 52.5814 53.4969 52.7295 53.5815C53.0765 53.7804 53.4743 53.8778 53.9229 53.8735C54.2529 53.8481 54.5407 53.7868 54.7861 53.6895C55.0358 53.5879 55.2474 53.4609 55.4209 53.3086C55.5986 53.1562 55.7446 52.9827 55.8589 52.7881C55.9731 52.5892 56.062 52.3797 56.1255 52.1597C56.1932 51.9354 56.2397 51.7048 56.2651 51.4678C56.2905 51.2266 56.3032 50.9875 56.3032 50.7505C56.3032 50.505 56.2969 50.2109 56.2842 49.8682C56.2757 49.5212 56.263 49.1593 56.2461 48.7827C56.2334 48.4061 56.2165 48.0316 56.1953 47.6592C56.1784 47.2868 56.1593 46.9546 56.1382 46.6626C56.1213 46.3664 56.1043 46.1294 56.0874 45.9517C56.0705 45.7697 56.0557 45.6787 56.043 45.6787L57.4204 45.6533C57.4289 45.6576 57.4373 45.7591 57.4458 45.958C57.4585 46.1569 57.4691 46.4193 57.4775 46.7451C57.4902 47.071 57.5008 47.4412 57.5093 47.856C57.522 48.2664 57.5326 48.6896 57.541 49.1255C57.5495 49.5571 57.5558 49.9803 57.5601 50.395C57.5643 50.8097 57.5664 51.18 57.5664 51.5059ZM66.7959 50.4268C66.8001 50.8203 66.7705 51.2096 66.707 51.5947C66.6478 51.9756 66.5505 52.3395 66.415 52.6865C66.2796 53.0293 66.1061 53.3467 65.8945 53.6387C65.6872 53.9264 65.4396 54.1782 65.1519 54.394C64.8683 54.6056 64.5425 54.7707 64.1743 54.8892C63.8104 55.0076 63.4062 55.0669 62.9619 55.0669C62.5133 55.0669 62.1198 54.995 61.7812 54.8511C61.4427 54.7114 61.1465 54.521 60.8926 54.2798C60.6429 54.0343 60.4313 53.7529 60.2578 53.4355C60.0885 53.1182 59.951 52.7839 59.8452 52.4326C59.7437 52.0814 59.6675 51.7259 59.6167 51.3662C59.5659 51.0023 59.5363 50.6553 59.5278 50.3252C59.5194 49.9062 59.5278 49.4471 59.5532 48.9478C59.5744 48.5203 59.6125 48.0231 59.6675 47.4561C59.7267 46.889 59.8156 46.2839 59.9341 45.6406L61.3115 45.8374C61.2142 46.2563 61.1359 46.6605 61.0767 47.0498C61.0174 47.4391 60.9709 47.8052 60.937 48.1479C60.9032 48.4907 60.8799 48.8039 60.8672 49.0874C60.8587 49.3709 60.8545 49.6143 60.8545 49.8174C60.8545 50.0544 60.863 50.3188 60.8799 50.6108C60.901 50.9028 60.9391 51.2012 60.9941 51.5059C61.0534 51.8063 61.1338 52.1004 61.2354 52.3882C61.3411 52.6717 61.4787 52.9256 61.6479 53.1499C61.8172 53.37 62.0246 53.5477 62.27 53.6831C62.5155 53.8185 62.8075 53.8862 63.146 53.8862C63.4972 53.8862 63.8146 53.8058 64.0981 53.645C64.3817 53.4842 64.6229 53.2536 64.8218 52.9531C65.0207 52.6527 65.1709 52.2887 65.2725 51.8613C65.3783 51.4339 65.4269 50.9557 65.4185 50.4268C65.41 50.0036 65.3846 49.5465 65.3423 49.0557C65.3084 48.6325 65.2555 48.1479 65.1836 47.6021C65.1117 47.0562 65.0122 46.4764 64.8853 45.8628L66.2373 45.6787C66.3727 46.377 66.4764 47.016 66.5483 47.5957C66.6203 48.1712 66.6753 48.6706 66.7134 49.0938C66.7557 49.5846 66.7832 50.029 66.7959 50.4268ZM75.5874 53.2832C75.5451 53.5794 75.4604 53.8439 75.3335 54.0767C75.2108 54.3052 75.0563 54.5041 74.8701 54.6733C74.6839 54.8426 74.4744 54.9844 74.2417 55.0986C74.0132 55.2171 73.772 55.3123 73.5181 55.3843C73.2684 55.4562 73.0145 55.507 72.7563 55.5366C72.4982 55.5705 72.2507 55.5874 72.0137 55.5874C71.6878 55.5874 71.3662 55.5514 71.0488 55.4795C70.7314 55.4118 70.4183 55.3145 70.1094 55.1875C69.8047 55.0648 69.5021 54.9167 69.2017 54.7432C68.9054 54.5697 68.6113 54.3792 68.3193 54.1719L69.2461 53.0801C69.5762 53.3721 69.902 53.6027 70.2236 53.772C70.5495 53.937 70.8415 54.0618 71.0996 54.1465C71.4001 54.248 71.6878 54.3158 71.9629 54.3496C72.2676 54.3665 72.5511 54.3433 72.8135 54.2798C73.0758 54.2163 73.3044 54.1253 73.499 54.0068C73.6979 53.8841 73.8566 53.7402 73.9751 53.5752C74.0936 53.4059 74.1634 53.2282 74.1846 53.042C74.1973 52.8854 74.1698 52.7437 74.1021 52.6167C74.0343 52.4855 73.9349 52.367 73.8037 52.2612C73.6725 52.1512 73.5181 52.056 73.3403 51.9756C73.1626 51.891 72.9722 51.8169 72.769 51.7534C72.5701 51.6857 72.3628 51.6286 72.147 51.582C71.9354 51.5312 71.7301 51.4889 71.5312 51.4551C71.29 51.4128 71.0361 51.3577 70.7695 51.29C70.5029 51.2181 70.2406 51.125 69.9824 51.0107C69.7243 50.8965 69.481 50.7547 69.2524 50.5854C69.0239 50.4162 68.825 50.2131 68.6558 49.9761C68.4907 49.7349 68.3638 49.4556 68.2749 49.1382C68.1903 48.8208 68.1628 48.4569 68.1924 48.0464C68.2178 47.7078 68.2876 47.4032 68.4019 47.1323C68.5203 46.8573 68.6706 46.6118 68.8525 46.396C69.0387 46.1802 69.2503 45.9961 69.4873 45.8438C69.7285 45.6872 69.9845 45.5581 70.2554 45.4565C70.5262 45.355 70.8055 45.283 71.0933 45.2407C71.3853 45.1942 71.6751 45.173 71.9629 45.1772C72.3607 45.1984 72.7606 45.2598 73.1626 45.3613C73.3319 45.4036 73.5096 45.4587 73.6958 45.5264C73.8862 45.5898 74.0767 45.6681 74.2671 45.7612C74.4575 45.8501 74.6458 45.958 74.832 46.085C75.0182 46.2077 75.196 46.3494 75.3652 46.5103L74.6543 47.6338C74.5189 47.4814 74.375 47.3481 74.2227 47.2339C74.0703 47.1196 73.9159 47.0202 73.7593 46.9355C73.6069 46.8509 73.4546 46.779 73.3022 46.7197C73.1499 46.6605 73.006 46.6118 72.8706 46.5737C72.5448 46.4849 72.2253 46.4341 71.9121 46.4214C71.527 46.4214 71.1842 46.4806 70.8838 46.5991C70.5833 46.7134 70.3294 46.8636 70.1221 47.0498C69.9189 47.2318 69.7624 47.437 69.6523 47.6655C69.5465 47.8898 69.4937 48.112 69.4937 48.332C69.4937 48.5479 69.5571 48.7573 69.6841 48.9604C69.8153 49.1636 69.9951 49.3477 70.2236 49.5127C70.4521 49.6777 70.7209 49.8195 71.0298 49.938C71.3387 50.0522 71.6709 50.1326 72.0264 50.1792C72.3353 50.2131 72.6421 50.2681 72.9468 50.3442C73.2557 50.4204 73.5498 50.5177 73.8291 50.6362C74.1084 50.7547 74.3644 50.8986 74.5972 51.0679C74.8341 51.2329 75.033 51.4255 75.1938 51.6455C75.3547 51.8613 75.471 52.1068 75.543 52.3818C75.6191 52.6527 75.634 52.9531 75.5874 53.2832ZM83.6553 45.6152L83.6299 46.8276L80.6655 46.9419L80.7544 54.9526L79.3516 54.978V46.9927L76.3491 47.1133L76.3237 45.7739L83.6553 45.6152ZM96.3887 50.1157C96.3887 50.7082 96.285 51.2435 96.0776 51.7217C95.8745 52.1956 95.5973 52.6167 95.2461 52.9849C94.8991 53.353 94.4928 53.6704 94.0273 53.937C93.5618 54.1994 93.071 54.4152 92.5547 54.5845C92.0384 54.7537 91.5116 54.8786 90.9741 54.959C90.4367 55.0394 89.9183 55.0796 89.4189 55.0796C89.2497 55.0796 89.0825 55.0754 88.9175 55.0669C88.7524 55.0584 88.5959 55.0415 88.4478 55.0161L88.2002 45.5898C88.5303 45.5645 88.8477 45.5454 89.1523 45.5327C89.457 45.52 89.7427 45.5137 90.0093 45.5137C90.479 45.5137 90.9635 45.5327 91.4629 45.5708C91.9622 45.6047 92.4468 45.6787 92.9165 45.793C93.3905 45.903 93.8369 46.0617 94.2559 46.269C94.679 46.4764 95.0472 46.7515 95.3604 47.0942C95.6777 47.4328 95.9274 47.8496 96.1094 48.3447C96.2956 48.8398 96.3887 49.4302 96.3887 50.1157ZM95.1953 50.0522C95.1826 49.6418 95.1128 49.2715 94.9858 48.9414C94.8589 48.6071 94.6854 48.313 94.4653 48.0591C94.2495 47.8052 93.9956 47.5872 93.7036 47.4053C93.4116 47.2191 93.0964 47.0667 92.7578 46.9482C92.4193 46.8298 92.0638 46.743 91.6914 46.688C91.319 46.633 90.9445 46.6055 90.5679 46.6055C90.4071 46.6055 90.2357 46.6118 90.0537 46.6245C89.876 46.633 89.6919 46.6478 89.5015 46.6689L89.6982 53.8481C89.7702 53.8566 89.8421 53.8608 89.9141 53.8608C89.9902 53.8608 90.0643 53.8608 90.1362 53.8608C90.5594 53.8608 90.9805 53.8228 91.3994 53.7466C91.8184 53.6704 92.2161 53.5583 92.5928 53.4102C92.9736 53.262 93.3249 53.0801 93.6465 52.8643C93.9681 52.6442 94.2453 52.3945 94.478 52.1152C94.7108 51.8317 94.8906 51.5186 95.0176 51.1758C95.1488 50.8288 95.208 50.4543 95.1953 50.0522ZM107.059 50.2935C107.059 50.7463 107.002 51.1821 106.888 51.6011C106.773 52.0158 106.611 52.4051 106.399 52.769C106.192 53.133 105.942 53.4652 105.65 53.7656C105.358 54.0661 105.032 54.3242 104.672 54.54C104.317 54.7516 103.934 54.9167 103.523 55.0352C103.117 55.1536 102.694 55.2129 102.254 55.2129C101.81 55.2129 101.382 55.1536 100.972 55.0352C100.565 54.9167 100.185 54.7516 99.8291 54.54C99.4736 54.3242 99.1499 54.0661 98.8579 53.7656C98.5659 53.4652 98.3162 53.133 98.1089 52.769C97.9015 52.4051 97.7407 52.0158 97.6265 51.6011C97.5122 51.1821 97.4551 50.7463 97.4551 50.2935C97.4551 49.8407 97.5122 49.4048 97.6265 48.9858C97.7407 48.5669 97.9015 48.1755 98.1089 47.8115C98.3162 47.4476 98.5659 47.1175 98.8579 46.8213C99.1499 46.5208 99.4736 46.2648 99.8291 46.0532C100.185 45.8374 100.568 45.6724 100.978 45.5581C101.389 45.4396 101.814 45.3804 102.254 45.3804C102.694 45.3804 103.117 45.4396 103.523 45.5581C103.934 45.6724 104.317 45.8374 104.672 46.0532C105.032 46.2648 105.358 46.5208 105.65 46.8213C105.942 47.1175 106.192 47.4476 106.399 47.8115C106.611 48.1755 106.773 48.5669 106.888 48.9858C107.002 49.4048 107.059 49.8407 107.059 50.2935ZM105.802 50.2935C105.802 49.9591 105.76 49.6375 105.675 49.3286C105.591 49.0155 105.47 48.7235 105.313 48.4526C105.161 48.1818 104.977 47.9364 104.761 47.7163C104.545 47.492 104.306 47.3016 104.044 47.145C103.782 46.9842 103.498 46.8615 103.193 46.7769C102.893 46.688 102.58 46.6436 102.254 46.6436C101.763 46.6436 101.304 46.7409 100.876 46.9355C100.449 47.126 100.075 47.3862 99.7529 47.7163C99.4313 48.0464 99.1774 48.4336 98.9912 48.8779C98.8092 49.318 98.7183 49.7899 98.7183 50.2935C98.7183 50.797 98.8092 51.271 98.9912 51.7153C99.1774 52.1597 99.4313 52.5469 99.7529 52.877C100.075 53.207 100.449 53.4694 100.876 53.6641C101.304 53.8545 101.763 53.9497 102.254 53.9497C102.58 53.9497 102.893 53.9074 103.193 53.8228C103.498 53.7339 103.782 53.6112 104.044 53.4546C104.306 53.2938 104.545 53.1034 104.761 52.8833C104.977 52.659 105.161 52.4115 105.313 52.1406C105.47 51.8698 105.591 51.5799 105.675 51.271C105.76 50.9578 105.802 50.632 105.802 50.2935ZM113.591 54.5591H112.315L112.093 45.7358L113.508 45.7866L113.591 54.5591ZM122.338 45.6152L122.312 46.8276L119.348 46.9419L119.437 54.9526L118.034 54.978V46.9927L115.032 47.1133L115.006 45.7739L122.338 45.6152ZM125.112 45.0566L124.788 52.8833L123.804 52.9087L123.569 45.1074L125.112 45.0566ZM125.01 54.5845C125.01 54.6818 124.991 54.7728 124.953 54.8574C124.915 54.9463 124.862 55.0225 124.794 55.0859C124.731 55.1494 124.655 55.1981 124.566 55.2319C124.481 55.27 124.39 55.2891 124.293 55.2891C124.196 55.2891 124.105 55.27 124.02 55.2319C123.935 55.1981 123.861 55.1494 123.798 55.0859C123.734 55.0225 123.684 54.9463 123.646 54.8574C123.612 54.7728 123.595 54.6818 123.595 54.5845C123.595 54.4871 123.612 54.3962 123.646 54.3115C123.684 54.2227 123.734 54.1465 123.798 54.083C123.861 54.0195 123.935 53.9688 124.02 53.9307C124.105 53.8926 124.196 53.8735 124.293 53.8735C124.39 53.8735 124.481 53.8926 124.566 53.9307C124.655 53.9688 124.731 54.0195 124.794 54.083C124.862 54.1465 124.915 54.2227 124.953 54.3115C124.991 54.3962 125.01 54.4871 125.01 54.5845Z" fill="white"/>
</svg>
